<svg xmlns="http://www.w3.org/2000/svg" viewBox="0 0 243 51.895"><path d="M77.65 16.61a12.924 12.924 0 01-4.285.8c-3.28 0-5.645-1.8-5.645-5.352 0-3.368 2.542-5.17 5.911-5.17a13.205 13.205 0 013.96.768V2.217a27.428 27.428 0 00-5.615-.651c-6.62 0-12.354 3.46-12.354 10.375 0 7.358 5.5 10.965 12.354 10.965a22.482 22.482 0 005.674-.829V16.61z" fill="#c41e3a"/><path d="M80.284 12a12.038 12.038 0 015.143-1.3c1.862 0 3.9.236 3.931 2.217-.68-.06-1.861-.208-2.9-.208-3.694 0-7.951.946-7.951 5.676 0 3.22 2.779 4.521 5.646 4.521a5.6 5.6 0 005.024-2.572h.058v2.217h6.916v-9.369c0-5.617-5.172-6.385-9.427-6.385a19.936 19.936 0 00-6.444.888V12zm9.074 4.256A2.491 2.491 0 0187.053 19c-1.153 0-1.744-.414-1.744-1.477 0-1.6 1.773-1.743 3.31-1.743h.739v.473zm9.196 12.5H106v-8.185h.059a5.207 5.207 0 004.64 2.335c4.641 0 6.562-3.637 6.562-7.8 0-4.464-1.832-8.306-6.769-8.306a4.8 4.8 0 00-4.965 3.163h-.059V7.154h-6.914v21.6zm7.24-13.831c0-1.448.237-3.161 1.834-3.161 1.624 0 1.891 1.713 1.891 3.339s-.267 3.191-1.833 3.191c-1.655 0-1.892-1.565-1.892-3.369zm13.406 7.626h7.447V7.154H119.2v15.4zM126.648.384H119.2v5.144h7.447V.384z" fill="#c41e3a" fill-rule="evenodd"/><path d="M128.04 7.154v4.432h2.631v5.32c0 4.077 1.861 6 5.7 6a17.96 17.96 0 005.112-.8v-4.431a5.333 5.333 0 01-1.743.266c-.976 0-1.626-.71-1.626-2.012v-4.343h3.369V7.154h-3.369V1.33l-7.447 2.277v3.547z" fill="#c41e3a"/><path d="M143.842 12a12.027 12.027 0 015.143-1.3c1.862 0 3.9.236 3.93 2.217-.681-.06-1.862-.208-2.9-.208-3.695 0-7.951.946-7.951 5.676 0 3.22 2.778 4.521 5.646 4.521a5.6 5.6 0 005.024-2.572h.058v2.217h6.916v-9.369c0-5.617-5.171-6.385-9.428-6.385a19.927 19.927 0 00-6.442.888V12zm9.073 4.256A2.492 2.492 0 01150.609 19c-1.152 0-1.744-.414-1.744-1.477 0-1.6 1.773-1.743 3.311-1.743h.739v.473z" fill="#c41e3a" fill-rule="evenodd"/><path d="M162.11.384v22.167h7.448V.384zm38.274 16.226a12.92 12.92 0 01-4.285.8c-3.28 0-5.644-1.8-5.644-5.352 0-3.368 2.541-5.17 5.91-5.17a13.224 13.224 0 013.962.768V2.217a27.452 27.452 0 00-5.615-.651c-6.622 0-12.356 3.46-12.356 10.375 0 7.358 5.5 10.965 12.356 10.965a22.466 22.466 0 005.672-.829V16.61z" fill="#c41e3a"/><path d="M202.28 22.551h7.449V7.154h-7.449v15.4zM209.729.384h-7.449v5.144h7.449V.384z" fill="#c41e3a" fill-rule="evenodd"/><path d="M211.119 7.154v4.432h2.632v5.32c0 4.077 1.862 6 5.7 6a17.965 17.965 0 005.112-.8v-4.431a5.324 5.324 0 01-1.743.266c-.976 0-1.626-.71-1.626-2.012v-4.343h3.369V7.154H221.2V1.33l-7.447 2.277v3.547z" fill="#c41e3a"/><path d="M224.321 7.154l3.93 10.787c.533 1.713 1.655 3.958 1.655 5.111 0 .8-.857 1.449-2.334 1.449a6.978 6.978 0 01-2.217-.3v4.373a27.549 27.549 0 004.878.535c5.821 0 7.21-4.227 8.687-9.076L243 7.154h-7.153l-1.833 9.456h-.059l-1.921-9.456z" fill="#c41e3a"/><path d="M61.571 47.937H73.54c4.286 0 8.482-.535 8.482-5.733a5.082 5.082 0 00-4.639-4.7v-.059c2.748-.709 4.256-2.216 4.256-5.053 0-3.933-3.517-5.085-7.094-5.085H61.571v20.63zm7.448-8.483h2.128c1.477 0 2.955.327 2.955 2.1 0 1.6-1.566 2.129-3.014 2.129h-2.069v-4.229zm0-8.245h2.157c1.419 0 2.72.473 2.72 2.009 0 1.568-1.508 1.979-2.9 1.979h-1.98v-3.988zm16.116 6.178a11.993 11.993 0 015.142-1.3c1.862 0 3.9.238 3.931 2.217-.679-.058-1.862-.208-2.9-.208-3.694 0-7.95.946-7.95 5.676 0 3.222 2.778 4.522 5.645 4.522a5.589 5.589 0 005.024-2.573h.059v2.219h6.916v-9.374c0-5.615-5.173-6.382-9.427-6.382a20.047 20.047 0 00-6.444.885v4.318zm9.073 4.253a2.492 2.492 0 01-2.3 2.75c-1.152 0-1.743-.415-1.743-1.476 0-1.6 1.772-1.746 3.309-1.746h.739v.472z" fill="#0038a8" fill-rule="evenodd"/><path d="M103.286 47.937h7.447v-8.865c0-.888 0-2.1 1.33-2.1 1.3 0 1.3 1.212 1.3 2.1v8.865h7.449v-10.7c0-2.986-1.449-5.053-5.409-5.053a5.09 5.09 0 00-5.025 3.013h-.058v-2.66h-7.034v15.4zm27.662-22.166H123.5v22.166h7.448v-7.479h.059l4.196 7.479h8.69l-5.409-8.601 5.202-6.799h-8.422l-4.257 6.12h-.059V25.771z" fill="#0038a8"/><path d="M51.935 25.966A25.951 25.951 0 1125.985.191a25.863 25.863 0 0125.95 25.775z" fill="#fff"/><path d="M49.947 42.674a2.654 2.654 0 11-.012 0zm-.012.414a2.148 2.148 0 10.012 0zm-.5 3.814h-.476V43.92a5.391 5.391 0 01.843-.071 1.574 1.574 0 01.927.225.715.715 0 01.273.619.741.741 0 01-.582.723v.025c.262.047.439.284.5.723a2.517 2.517 0 00.19.738h-.5a2.178 2.178 0 01-.2-.762.555.555 0 00-.641-.521h-.331zm0-1.651h.343c.392 0 .724-.144.724-.509 0-.264-.19-.524-.724-.524a2.141 2.141 0 00-.343.024z" fill="#0038a8"/><g fill="#0038a8"><path d="M25.948.6l-1.065 2.977-10.583-.77C21.872-1.567 33.339-.65 40.4 4.314a27 27 0 018.748 9.96c4.373 7.645 3.418 19-1.508 26.094a26.121 26.121 0 01-26.9 11.026 27.142 27.142 0 01-13.059-7.055l4.043-.258-.624 2.2c4.925-3.27 9.85-7.056 14.738-10.586 5.109 3.42 9.849 7.169 14.922 10.66-1.617-5.806-3.786-11.577-5.55-17.46L50.022 18.1h-18.34z"/><path d="M24.7 4.129C24.331 5.2 24 6.3 23.633 7.4L9.078 6.224l1.58-1.214c4.778-.182 9.263-.733 14.042-.881zM6.331 9c5.7-.367 11.458-.714 17.118-1.082l-1.139 3.341-16.724-1.39zM3.57 12.841c6.138-.222 12.528-.882 18.666-1.141l-1.066 3.345-18.062-1.4zm16.791 2.645h.626l-.772 2.537H1.948l3.087 2.426c0-.011-4.357-.363-4.366-.373a29.626 29.626 0 011.022-3.34zM5.918 21.073l4.043 2.977-9.831-.698.269-2.005 5.519-.274zm9.151 6.69L0 26.511v-1.32c.013 0 10.771-.59 10.769-.591zm.552.367l.955.7-.776 2.719c.015.018-15.366-1.163-15.363-1.142a7.824 7.824 0 01-.183-1.322zM1.507 34.635a10 10 0 01-.441-1.654l14.555-.881-1.14 3.6zm11.725 4.962l-9.777-.809-.992-1.948 11.834-.699-1.065 3.456zm-.184.442l-1.139 3.6-5.293-.368-2.022-2.644 8.454-.588z"/></g></svg>