<svg id="Layer_1" data-name="Layer 1" xmlns="http://www.w3.org/2000/svg" viewBox="0 0 166.79 57.06"><defs><linearGradient id="OMB_Gradient_3" data-name="OMB Gradient 3" x1="133.83" y1="56.37" x2="166.73" y2="56.37" gradientUnits="userSpaceOnUse"><stop offset="0" stop-color="#93d500"/><stop offset="1" stop-color="#0ea2b6"/></linearGradient><clipPath id="clippath"><path d="M33.76 21.24c0 6.52 2.91 15.33 16.28 15.33s16.69-7.69 16.69-14.72S63.82 6.52 50.04 6.52s-16.28 8.2-16.28 14.72Z" style="fill:none"/></clipPath><style>.cls-3{fill:#002539}.cls-5{fill:#fff}.cls-6{fill:#9da0a2}.cls-5{fill-rule:evenodd}</style></defs><path d="M141.06 21.78c1.17-1.27 1.78-2.81 1.78-4.58 0-2.09-.85-5.87-6.52-7.68-2.28-.73-5.08-1.09-8.83-1.14h-.1c-1.25.02-27.7-.04-27.7-.04l-6.35 12.47-6.91-12.47H72.58c-.89-.82-1.88-1.6-2.96-2.31C64.57 2.71 57.69.88 50.26.88S35.97 2.7 30.9 6.01c-5.76 3.76-8.93 9.28-8.93 15.54 0 11.97 11.81 20.67 28.09 20.67 6.85 0 13.25-1.55 18.2-4.39h58.44c7.93.09 12.93-1.15 15.72-3.93 1.51-1.5 2.31-3.43 2.31-5.58 0-1.86-.63-4.52-3.7-6.53Z" style="fill:#fff"/><path class="cls-6" d="M50.28.88c7.43 0 14.31 1.83 19.36 5.15 1.08.71 2.07 1.48 2.96 2.31h13.85l6.91 12.46 6.35-12.47s20 .04 26.04.04h1.76c3.75.05 6.56.42 8.83 1.14 5.67 1.81 6.52 5.59 6.52 7.68 0 1.77-.61 3.31-1.78 4.58 3.06 2.01 3.7 4.68 3.7 6.53 0 2.15-.8 4.08-2.31 5.58-2.69 2.68-7.45 3.93-14.91 3.93H68.3c-4.95 2.84-11.35 4.39-18.2 4.39-16.27 0-28.09-8.69-28.09-20.67 0-6.26 3.17-11.78 8.93-15.54C36 2.68 42.88.86 50.3.86m0-.88c-7.58 0-14.63 1.87-19.83 5.27-6.02 3.93-9.33 9.71-9.33 16.28 0 12.48 12.18 21.55 28.96 21.55 6.85 0 13.39-1.56 18.43-4.39h59.03c7.72 0 12.65-1.33 15.52-4.19 1.68-1.67 2.57-3.82 2.57-6.21 0-1.92-.6-4.56-3.3-6.7.92-1.29 1.39-2.77 1.39-4.41 0-2.33-.93-6.54-7.13-8.52-2.36-.75-5.25-1.13-9.08-1.18h-1.77c-5.97 0-25.84-.04-26.04-.04h-.53l-.24.48-5.6 11.01L87.24 7.9l-.25-.45H72.97c-.86-.78-1.81-1.51-2.82-2.17-5.19-3.42-12.24-5.3-19.84-5.3Z"/><path class="cls-3" d="M25.27 21.55c0-10.9 11.5-17.37 25.01-17.37s24.95 6.52 24.95 17.37-11.57 17.37-25.15 17.37-24.81-6.62-24.81-17.37Zm8.5-.31c0 6.52 2.91 15.33 16.28 15.33s16.69-7.69 16.69-14.72S63.83 6.52 50.05 6.52s-16.28 8.2-16.28 14.72Z"/><path class="cls-3" d="M80.49 17.02h-.09v10.6c0 1.1 0 3.31.68 4.28.73 1.04 2.28 1.28 3.65 1.38v1.24c-1.91-.03-3.78-.1-5.7-.14-1.73.03-3.42.1-5.15.14v-1.24c1.73-.21 3.46-.35 3.92-1.8.32-.97.32-2.45.32-3.31V14.43c-.82-1.21-2.6-1.42-4.24-1.52v-1.24c1.64.03 3.33.1 4.97.14 1.91-.03 3.78-.1 5.7-.14l8.93 16.12 8.2-16.12c1.73.03 3.46.1 5.2.14 1.82-.03 3.65-.1 5.74-.14v1.24c-4.42-.1-4.24 1.59-4.28 4.42v10.84c0 .86 0 2.35.32 3.31.46 1.45 2.19 1.59 3.92 1.8v1.24c-2.73-.03-5.42-.1-8.16-.14-2.37.03-4.79.1-7.29.14v-1.24c1.73-.21 3.46-.35 3.92-1.8.32-.97.32-2.45.32-3.31V17.26h-.09l-9.07 17.26h-2.19l-9.53-17.5ZM113.64 33.28c4.38.1 4.28-1.52 4.28-4.35V17.26c0-2.83.09-4.45-4.28-4.35v-1.24c2.23.03 4.33.1 6.43.14 2.46-.03 4.92-.1 7.38-.14 4.88.07 12.12.73 12.12 5.52 0 3.38-4.69 4.73-8.39 5.11v.07c4.6.35 10.3 1.69 10.3 5.94 0 5.73-9.07 6.28-14.72 6.21-2.23-.03-4.51-.1-6.75-.14-2.1.03-4.15.1-6.38.14v-1.24Zm11.26-11.56h.91c4.28 0 6.2-.93 6.2-4.21 0-2.8-1.59-4.25-5.29-4.25-.73-.03-1.82.03-1.82.69v7.77Zm0 6.63c0 2.28 0 4.59 3.83 4.59 3.6 0 4.88-2.14 4.88-4.59 0-3.49-2.14-5.04-6.75-5.04-.64 0-1.32.03-1.96.03v5.01Z"/><path class="cls-6" d="M33.76 21.24c0 6.52 2.91 15.33 16.28 15.33s16.69-7.69 16.69-14.72S63.82 6.52 50.04 6.52s-16.28 8.2-16.28 14.72Z"/><g style="clip-path:url(#clippath)"><path class="cls-5" d="M29.97 12.95c7.23-3.54 10.86-.72 15.24 5.92-3.08-1.07-5.08-7.7-15.43-5.56.06-.12.13-.24.19-.35Zm4.06 3.47c.65 1.14-1.96 8.41 8.38 4.95-.89-.43-1.27-.83-1.99-1.41-.84 1.33-2 1.88-3.19 1.7-1.78-.27-3.22-2.21-1.85-5.2-.78-.29-1.01-.18-1.34-.04Zm12.55 4.26c-.75-.9-1.24-1.23-2.2-1.8-3.6-2.13-6.74-7.75-14.04-4.34 3.3-1.21 5.71.15 7.79 1.94-.03-.01-.06-.02-.1-.03l.86.72c2.57 2.38 4.73 5.04 7.69 3.51Zm-8.82-3.01c-.22 0-.4.21-.4.48s.18.48.4.48.4-.21.4-.48c0-.26-.18-.48-.4-.48Zm1.8 1.01c-.18-.22-.37-.41-.55-.59.02.11.03.23.03.35 0 .95-.64 1.72-1.43 1.72s-1.43-.77-1.43-1.72c0-.74.39-1.37.94-1.61-.14-.06-.27-.12-.41-.17-.62.39-1.05 1.17-1.05 2.07 0 1.29.87 2.34 1.95 2.34s1.95-1.05 1.95-2.34v-.06Zm-8.18-3.44.48-.02c-.14.19-.25.39-.35.59h.71c-.72.88-1.09 1.79-1.21 2.72l.73-.26c-.45 1.24-.59 2.41-.44 3.51l.86-.67c-.12 1.09.07 2.08.4 3.03l.66-.95c.24.95.71 1.82 1.68 2.49l.24-.95c.35.53 1.17.82 2.29.98l.04-1.1c.68.26 1.35.25 2.03 0l-.26-1.03c.6-.2 1.3-.7 1.78-1.41l.15.21c.59.82 1.65 1.35 3 1.75-1.62.36-2.48.08-3.4-.16.66.54 1.62 1.03 2.33 1.24-1.16.39-1.89.43-3.21-.13.54.69 1.08 1.26 1.62 1.66-1.34-.02-2.44-.44-3.17-1.16.46 1.04.99 1.62 1.38 2.3-1.31-.31-2.16-.5-2.71-2.02.17 1.1.28 1.69.91 3.02-1.41-.88-2.12-1.12-2.95-2.81.26 1.05.28 1.58 1.13 2.94-2.44-1.07-2.78-2.28-3.15-3.51.03 1.05.23 2.1.6 3.15-4.89-4.98-5.05-10.21-2.15-13.42ZM47.2 23.79c-.99.33-1.69 1.99-1.83 5.08l1.76 4.57 1.91-4.57c-.14-3.11-.84-4.77-1.84-5.09Zm17.09-10.84c.07.12.13.23.19.35-10.35-2.13-12.35 4.5-15.43 5.56 4.38-6.63 8-9.46 15.24-5.92Zm-4.06 3.47c-.33-.14-.57-.25-1.34.04 1.37 2.98-.07 4.93-1.85 5.2-1.19.18-2.36-.37-3.19-1.7-.73.58-1.1.98-1.99 1.41 10.34 3.47 7.73-3.81 8.38-4.95Zm-12.92 5c-2.8 2.09-3.04 4.47-3.39 6.76 1.13-2.34 2.14-4.49 3.36-5.38 1.12 1.1 2.29 3.32 3.35 5.46-.37-2.36-.5-4.82-3.32-6.85Zm.38-.74c2.96 1.53 5.12-1.13 7.69-3.51l.86-.72s-.06.02-.1.03c2.08-1.79 4.48-3.14 7.79-1.94-7.31-3.41-10.45 2.2-14.04 4.34-.95.57-1.45.9-2.2 1.8Zm8.82-3.01c-.22 0-.4.21-.4.48s.18.48.4.48.4-.21.4-.48-.18-.48-.4-.48Zm-1.8 1.01v.06c0 1.29.87 2.34 1.95 2.34s1.95-1.05 1.95-2.34c0-.9-.42-1.68-1.05-2.07-.14.05-.27.11-.41.17.55.24.94.87.94 1.61 0 .95-.64 1.72-1.43 1.72s-1.43-.77-1.43-1.72c0-.12.01-.24.03-.35-.19.18-.37.38-.55.59Zm8.18-3.44c2.9 3.21 2.75 8.44-2.15 13.42.37-1.05.56-2.1.6-3.15-.37 1.23-.72 2.44-3.15 3.51.85-1.36.87-1.89 1.13-2.94-.82 1.68-1.54 1.92-2.95 2.81.63-1.32.75-1.91.91-3.02-.56 1.53-1.4 1.72-2.71 2.02.39-.68.92-1.26 1.38-2.3-.73.72-1.83 1.14-3.17 1.16.54-.4 1.08-.97 1.62-1.66-1.32.55-2.06.51-3.21.13.71-.21 1.67-.7 2.33-1.24-.92.24-1.77.52-3.4.16 1.35-.4 2.41-.92 3-1.75l.15-.21c.48.71 1.18 1.21 1.78 1.41l-.26 1.03c.68.25 1.35.26 2.03 0l.04 1.1c1.12-.15 1.94-.45 2.29-.98l.24.95c.96-.67 1.44-1.53 1.68-2.49l.66.95c.33-.95.52-1.94.4-3.03l.86.67c.15-1.1.01-2.27-.44-3.51l.73.26c-.12-.93-.49-1.84-1.21-2.72h.71c-.1-.2-.22-.39-.35-.59l.48.02Z"/></g><path class="cls-3" d="M0 52.27c0-2.31 1.8-4.3 4.14-4.3 1 0 2.03.36 2.3.48l-.39 1.82h-.33c-.23-1.14-.85-1.79-1.65-1.79-1.44 0-2.1 2.05-2.1 3.58s.63 2.13 1.65 2.13c.68 0 1.31-.29 1.82-.88l.29.22c-.72 1.01-1.82 1.59-3 1.59-1.54 0-2.73-.97-2.73-2.85ZM6.4 53.08c0-1.7 1.46-3.35 3.34-3.35 1.23 0 2.16.69 2.16 2.04 0 1.69-1.46 3.35-3.34 3.35-1.18 0-2.16-.66-2.16-2.04Zm3.79-1.74c0-.75-.19-1.12-.61-1.12-.99 0-1.47 2.08-1.47 3.29 0 .75.19 1.12.61 1.12.99 0 1.47-2.08 1.47-3.29ZM21.23 54.38c-.76.43-1.49.74-1.98.74-.35 0-.57-.17-.57-.58 0-.14.03-.27.07-.42l.66-2.67c.06-.24.13-.48.13-.64 0-.12-.05-.2-.17-.2-.56 0-1.61 1.47-2.18 3.96l-.07.33-1.47.23-.21-.11.87-3.57c.06-.22.13-.46.13-.63 0-.14-.05-.21-.18-.21-.57 0-1.65 1.55-2.21 4.15l-.03.14-1.47.23-.21-.11.93-4.48h-.79l.07-.3 2.19-.53.21.11-.47 2.24h.02c.59-1.32 1.42-2.34 2.49-2.34.67 0 .98.35.98 1.06 0 .16-.1.56-.21.92.59-1.14 1.4-1.99 2.43-1.99.7 0 .96.39.96.98 0 .27-.06.58-.14.92l-.67 2.61.83-.1.06.25ZM30.91 54.38c-.76.43-1.49.74-1.98.74-.35 0-.57-.17-.57-.58 0-.14.03-.27.07-.42l.66-2.67c.06-.24.13-.48.13-.64 0-.12-.05-.2-.17-.2-.56 0-1.61 1.47-2.18 3.96l-.07.33-1.47.23-.21-.11.87-3.57c.06-.22.13-.46.13-.63 0-.14-.05-.21-.18-.21-.57 0-1.65 1.55-2.21 4.15l-.03.14-1.47.23-.21-.11.93-4.48h-.79l.07-.3 2.19-.53.21.11-.47 2.24h.02c.59-1.32 1.42-2.34 2.49-2.34.67 0 .98.35.98 1.06 0 .16-.1.56-.21.92.59-1.14 1.4-1.99 2.43-1.99.7 0 .96.39.96.98 0 .27-.06.58-.14.92l-.67 2.61.83-.1.06.25ZM37.33 53.99l.09.24c-.71.53-1.46.89-1.96.89-.39 0-.54-.22-.54-.57 0-.12.02-.28.06-.43l.33-1.34h-.02c-.6 1.33-1.47 2.34-2.6 2.34-.71 0-.97-.4-.97-.98 0-.28.06-.58.14-.92l.68-2.68h-.78l.07-.3 2.31-.53.21.11-.87 3.57c-.06.25-.13.48-.13.64 0 .12.05.2.17.2.58 0 1.66-1.53 2.19-4l.03-.15 1.5-.37.21.11-.91 4.36.8-.19ZM43.96 54.38c-.76.43-1.49.74-1.98.74-.35 0-.57-.17-.57-.58 0-.14.03-.27.07-.42l.65-2.67c.06-.24.13-.48.13-.64 0-.12-.05-.2-.17-.2-.58 0-1.66 1.55-2.21 4.15l-.03.14-1.47.23-.21-.11.93-4.48h-.79l.07-.3 2.19-.53.21.11-.47 2.24h.02c.6-1.32 1.46-2.34 2.6-2.34.7 0 .96.39.96.98 0 .27-.06.58-.14.92l-.67 2.61.83-.1.06.25ZM47.5 49.82l-.9 4.36.78-.19.09.24c-.71.53-1.45.89-1.99.89-.36 0-.57-.17-.57-.62 0-.1 0-.23.04-.38l.75-3.58h-.79l.07-.3 2.32-.53.21.11Zm.35-1.58c0 .59-.43 1.04-1.01 1.04-.52 0-.87-.31-.87-.84 0-.57.43-1.04 1.01-1.04.52 0 .87.3.87.83ZM50.14 53.49c-.02.1-.03.18-.03.26 0 .22.08.35.27.35.25 0 .65-.22 1.04-.48l.2.29c-.94.8-1.59 1.22-2.26 1.22s-.95-.43-.95-1.02c0-.19.03-.37.07-.56l.63-2.96h-.61l.12-.61c.81-.09 1.05-.24 2.24-1.76h.4l-.35 1.63h1.24l-.27.74h-1.12l-.62 2.91ZM57.54 50.24c0 .79-1.68 3.65-2.46 4.77-1.02 1.46-1.89 1.98-2.64 1.98-.61 0-.93-.34-.93-.75 0-.24.1-.49.32-.72l.29.15c.36.19.7.28.97.28.54 0 1.07-.4 1.59-1.19l-1.08.33-.59-4.55h-.65l.07-.3 2.19-.53.46 4.4c.56-1.04 1.11-2.44 1.11-3.15 0-.28-.09-.44-.36-.44-.07 0-.13 0-.2.02l.07-.3c.46-.27 1.01-.51 1.38-.51s.48.21.48.51ZM66.22 52.85c0 1.39-1.44 2.16-3.26 2.16h-3.62l.07-.3c.6-.1.77-.17.87-.67l1.06-4.98c.1-.49-.04-.57-.6-.67l.06-.3h3.38c1.36 0 2.28.41 2.28 1.36s-.96 1.66-1.99 1.84c.96.11 1.74.59 1.74 1.56Zm-1.95 0c0-.7-.36-1.15-1.31-1.15h-.41l-.56 2.62c.15.08.35.14.67.14 1.03 0 1.62-.71 1.62-1.61Zm-.93-4.24h-.13l-.54 2.56h.32c1.02 0 1.59-.74 1.59-1.58 0-.67-.36-.98-1.23-.98ZM72.66 53.99l.08.24c-.71.53-1.46.89-1.96.89-.39 0-.54-.22-.54-.57 0-.12.02-.28.06-.43l.33-1.34h-.04c-.62 1.5-1.45 2.34-2.5 2.34-.83 0-1.22-.53-1.22-1.53 0-1.88 1.4-3.87 3.37-3.87.44 0 .79.1 1.07.29l1.23-.3.21.11-.91 4.36.8-.19Zm-1.68-3.52c-.22-.16-.46-.24-.65-.24-1.11 0-1.75 2.28-1.75 3.51 0 .4.07.56.27.56.7 0 1.67-1.85 2.13-3.83ZM79.29 54.38c-.76.43-1.49.74-1.98.74-.35 0-.57-.17-.57-.58 0-.14.03-.27.07-.42l.65-2.67c.06-.24.13-.48.13-.64 0-.12-.05-.2-.17-.2-.58 0-1.66 1.55-2.21 4.15l-.03.14-1.47.23-.21-.11.93-4.48h-.79l.07-.3 2.19-.53.21.11-.47 2.24h.02c.6-1.32 1.46-2.34 2.6-2.34.7 0 .96.39.96.98 0 .27-.06.58-.14.92l-.67 2.61.83-.1.06.25ZM82.9 47.67l-1.51 7.24-1.47.23-.21-.11 1.39-6.63h-.79l.07-.3 2.32-.53.21.11Zm2.37 6.34.08.24c-.79.57-1.33.88-1.76.88-.39 0-.62-.17-.94-1.09l-.64-1.81L83.57 51c.39-.3.4-.66-.12-.66l.06-.27 2.31-.37.17.26-2.49 1.64.86 2.17c.09.24.16.33.36.33.12 0 .29-.04.55-.09ZM88.73 49.82l-.9 4.36.78-.19.09.24c-.71.53-1.45.89-1.99.89-.36 0-.57-.17-.57-.62 0-.1 0-.23.04-.38l.75-3.58h-.79l.07-.3 2.32-.53.21.11Zm.35-1.58c0 .59-.43 1.04-1.01 1.04-.52 0-.87-.31-.87-.84 0-.57.43-1.04 1.01-1.04.52 0 .87.3.87.83ZM95.33 54.38c-.76.43-1.49.74-1.98.74-.35 0-.57-.17-.57-.58 0-.14.03-.27.07-.42l.65-2.67c.06-.24.13-.48.13-.64 0-.12-.05-.2-.17-.2-.58 0-1.66 1.55-2.21 4.15l-.03.14-1.47.23-.21-.11.93-4.48h-.79l.07-.3 2.19-.53.21.11-.47 2.24h.02c.6-1.32 1.46-2.34 2.6-2.34.7 0 .96.39.96.98 0 .27-.06.58-.14.92l-.67 2.61.83-.1.06.25ZM101.93 49.89c0 .12-.05.27-.13.43-.23-.07-.44-.11-.65-.11-.14 0-.28.02-.42.07.2.23.31.51.31.88 0 1.01-.84 1.65-1.82 1.93-.54.15-1.66.33-1.66.57 0 .08.15.13.36.18l1.23.28c.94.22 1.46.53 1.46 1.19 0 1.27-2 1.76-3.35 1.76s-1.97-.44-1.97-.98c0-.43.42-.79 1.25-.79-.06.16-.08.31-.08.45 0 .53.41.81 1.21.81.89 0 1.52-.34 1.52-.65 0-.16-.19-.3-.68-.42l-1.23-.29c-.73-.17-1.12-.44-1.12-.88 0-.52.53-.91 1.33-1.2-.59-.16-1.21-.53-1.21-1.36 0-1.19 1.25-2.03 2.82-2.03.48 0 .9.08 1.23.25.29-.29.68-.51 1.08-.51.35 0 .53.17.53.43Zm-2.47 1.13c0-.53-.18-.81-.56-.81-.72 0-1.06 1-1.06 1.72 0 .53.18.81.56.81.72 0 1.06-1 1.06-1.72ZM113.93 54.74v.3h-3.64v-.3c.72-.1.94-.36.92-.86l-.16-4.83-2.16 5.51h-.65l-2.19-5.49-.17 4.81c-.02.49.21.76.93.86v.3h-2.47v-.3c.72-.1.82-.36.84-.86l.16-4.6c.02-.49-.11-.76-.84-.86v-.3h3.19l1.47 3.79 1.27-3.26c.07-.18.12-.43.13-.53h3.18v.3c-.72.1-.86.36-.84.86l.16 4.6c.02.49.11.76.84.86ZM119.84 54.3c-.32.49-.94.86-1.54.86s-.86-.33-.97-.83c-.31.51-.83.83-1.6.83-.93 0-1.59-.47-1.59-1.31 0-1.08 1.06-1.56 2.48-1.56.23 0 .43 0 .65.04v-.95c0-.79-.3-1.08-.68-1.08-.42 0-.71.36-1.19.99l-.36.48c-.45-.1-.68-.44-.68-.78 0-.68.95-1.22 2.45-1.22 1.75 0 2.24.72 2.24 2.01v1.9c0 .3.09.47.3.47.12 0 .27-.06.36-.11l.11.27Zm-2.57-1.41v-.08c-.15-.02-.31-.04-.47-.04-.67 0-.86.32-.86.78 0 .5.23.72.6.72.51 0 .72-.42.72-1.39ZM126.3 54.53v.27l-1.97.32h-.25l-.19-.96h-.04c-.33.63-.9 1-1.64 1-1.16 0-2.15-.9-2.15-2.54 0-1.8 1.19-2.82 2.84-2.82.32 0 .65.04.94.12v-.58c0-.46-.19-.86-.67-.95v-.27l2.16-.32h.29v5.87c0 .46.09.76.67.86Zm-2.45-1.92v-1.95c-.29-.25-.61-.35-.89-.35-.63 0-1.04.46-1.04 1.99 0 1.33.33 1.97.95 1.97s.99-.62.99-1.65ZM131.83 53.77c-.71 1.07-1.6 1.39-2.49 1.39-1.4 0-2.7-.76-2.7-2.57s1.19-2.82 2.95-2.82c1.86 0 2.29 1.21 2.2 2.55h-3.31c.05 1.42.69 1.87 1.53 1.87.48 0 1.05-.14 1.49-.6l.32.19Zm-3.34-1.98h1.67c.03-1.07-.25-1.54-.72-1.54-.55 0-.88.64-.95 1.54ZM141.46 53.08c0 1.24-1.19 1.96-3.03 1.96h-3.91v-.3c.63-.1.8-.17.8-.67v-4.98c0-.49-.17-.57-.8-.67v-.3h3.91c1.59 0 2.57.5 2.57 1.53s-.96 1.51-1.79 1.66c1.23.11 2.24.63 2.24 1.77Zm-3.96-4.43h-.27v2.56h.34c.93 0 1.42-.56 1.42-1.37s-.46-1.19-1.49-1.19Zm1.87 4.47c0-.81-.47-1.38-1.61-1.38h-.53v2.67c.15.06.34.09.62.09.93 0 1.52-.48 1.52-1.39ZM147.31 53.77c-.71 1.07-1.6 1.39-2.49 1.39-1.4 0-2.7-.76-2.7-2.57s1.19-2.82 2.95-2.82c1.86 0 2.29 1.21 2.2 2.55h-3.31c.05 1.42.69 1.87 1.53 1.87.48 0 1.05-.14 1.49-.6l.32.19Zm-3.34-1.98h1.67c.03-1.07-.25-1.54-.72-1.54-.55 0-.88.64-.95 1.54ZM151.98 54.09c-.31.38-.94 1.06-1.91 1.06s-1.55-.63-1.55-1.58v-2.96h-.67V50c.84-.09 1.06-.24 2.01-1.76h.44v1.63h1.33l-.12.74h-1.21v2.91c0 .57.22.75.53.75.28 0 .48-.14.82-.43l.32.25ZM156.23 54.09c-.31.38-.94 1.06-1.91 1.06s-1.55-.63-1.55-1.58v-2.96h-.67V50c.84-.09 1.06-.24 2.01-1.76h.44v1.63h1.33l-.12.74h-1.21v2.91c0 .57.22.75.53.75.28 0 .48-.14.82-.43l.32.25ZM161.53 53.77c-.71 1.07-1.6 1.39-2.49 1.39-1.4 0-2.7-.76-2.7-2.57s1.19-2.82 2.95-2.82c1.86 0 2.29 1.21 2.2 2.55h-3.31c.05 1.42.69 1.87 1.53 1.87.48 0 1.05-.14 1.49-.6l.32.19Zm-3.34-1.98h1.67c.03-1.07-.25-1.54-.72-1.54-.55 0-.88.64-.95 1.54ZM166.79 50.47c0 .27-.1.67-.29 1.02l-.65-.3c-.26-.12-.44-.17-.61-.17-.49 0-.65.36-.65.77v2.33c0 .46.15.57.7.67v.27h-3.15v-.27c.57-.1.67-.21.67-.67v-2.78c0-.46-.19-.86-.67-.95v-.27l2.16-.32h.25v1.19h.04c.29-.72.81-1.23 1.43-1.23.53 0 .77.29.77.71Z"/><path style="fill:url(#OMB_Gradient_3)" d="M133.83 56h32.9v.75h-32.9z"/></svg>